<svg id="SvgjsSvg1225" width="288" height="288" xmlns="http://www.w3.org/2000/svg" version="1.1" xmlns:xlink="http://www.w3.org/1999/xlink" xmlns:svgjs="http://svgjs.com/svgjs"><defs id="SvgjsDefs1226"></defs><g id="SvgjsG1227"><svg xmlns="http://www.w3.org/2000/svg" xmlns:xlink="http://www.w3.org/1999/xlink" viewBox="0 0 470 468" width="288" height="288"><defs><filter id="a" width="111.8%" height="111.9%" x="-5.9%" y="-3.9%" filterUnits="objectBoundingBox"><feOffset dy="5" in="SourceAlpha" result="shadowOffsetOuter1"></feOffset><feGaussianBlur in="shadowOffsetOuter1" result="shadowBlurOuter1" stdDeviation="4"></feGaussianBlur><feColorMatrix in="shadowBlurOuter1" result="shadowMatrixOuter1" values="0 0 0 0 0 0 0 0 0 0 0 0 0 0 0 0 0 0 0.078125 0"></feColorMatrix><feOffset dy="4" in="SourceAlpha" result="shadowOffsetOuter2"></feOffset><feGaussianBlur in="shadowOffsetOuter2" result="shadowBlurOuter2" stdDeviation="5.5"></feGaussianBlur><feColorMatrix in="shadowBlurOuter2" result="shadowMatrixOuter2" values="0 0 0 0 0 0 0 0 0 0 0 0 0 0 0 0 0 0 0.210824275 0"></feColorMatrix><feMerge><feMergeNode in="shadowMatrixOuter1"></feMergeNode><feMergeNode in="shadowMatrixOuter2"></feMergeNode></feMerge></filter><path id="b" d="M9.635 132.808C24.782 59.782 71.388 19.109 144.085 6.822c53.74-9.081 107.5-9.196 161.15.255 74.852 13.185 119.85 56.23 134.185 130.36 11.075 57.29 11.249 115.191-.174 172.427-15.324 72.52-63.132 117.285-135.561 129.527-53.74 9.08-107.5 9.195-161.15-.255-74.852-13.186-120.05-58.38-134.384-132.509-11.64-57.668-10.52-115.935 1.484-173.82z"></path></defs><g fill="none" fill-rule="evenodd"><g transform="translate(11 7)"><use fill="#a03232" filter="url(#a)" xlink:href="#b" class="color000 svgShape"></use><use fill="#c86f5e" xlink:href="#b" class="colorFF5439 svgShape"></use></g><path fill="#fffeb8" d="M103 335V146.778c0-9.818 7.96-17.778 17.778-17.778H366.23v18.979H121.98V335H103zm56.476-155.242 68.387 70.206c4.65 4.98 12.439 5.3 17.483.72 0 0 59.533-52.916 76.105-67.126 16.571-14.21 44.778-10.23 44.778 10.935v100.538c0 22.075-17.894 39.969-39.969 39.969H152.417v-18.978h173.506c11.777 0 21.327-9.55 21.327-21.329v-96.016c0-7.113-4.937-6.375-8.043-3.59l-88.475 76.36c-8.785 7.88-22.26 7.274-30.302-1.363l-74.823-77.37 13.869-12.956z" class="colorFFF svgShape"></path></g></svg></g></svg>